<?xml version="1.0" standalone="no"?>
<!DOCTYPE svg PUBLIC "-//W3C//DTD SVG 20010904//EN"
 "http://www.w3.org/TR/2001/REC-SVG-20010904/DTD/svg10.dtd">
<svg version="1.0" xmlns="http://www.w3.org/2000/svg"
 width="1024.000000pt" height="1024.000000pt" viewBox="0 0 1024.000000 1024.000000"
 preserveAspectRatio="xMidYMid meet">

<g transform="translate(0.000000,1024.000000) scale(0.100000,-0.100000)"
fill="#000000" stroke="none">
<path d="M1815 7428 c89 -90 187 -194 218 -232 l57 -70 0 -1638 c0 -901 2
-1638 4 -1638 3 0 145 85 318 188 172 104 347 207 388 231 41 23 86 50 99 60
l24 19 1 1298 1 1299 445 3 c485 3 549 -2 706 -54 305 -101 561 -303 752 -593
111 -168 174 -326 219 -549 13 -65 17 -133 17 -272 -1 -160 -4 -202 -27 -312
-61 -291 -189 -533 -390 -738 -232 -238 -608 -445 -1321 -729 -98 -40 -180
-70 -182 -69 -2 2 34 26 79 53 45 28 188 120 317 206 799 532 1090 846 1218
1318 23 87 26 114 26 286 1 205 -10 287 -61 435 -46 135 -48 133 -45 -25 5
-175 -15 -313 -65 -470 -73 -228 -174 -387 -373 -586 -234 -235 -415 -355
-1075 -709 -303 -162 -662 -366 -880 -500 -60 -37 -129 -78 -152 -90 -41 -23
-43 -26 -43 -69 0 -43 -5 -52 -82 -141 -149 -174 -604 -715 -611 -726 -3 -6
58 11 136 38 480 168 969 284 1809 428 650 113 1011 220 1376 411 211 110 386
236 547 395 240 238 426 551 525 885 12 41 24 76 26 78 4 4 121 -100 329 -295
72 -66 218 -201 325 -300 689 -632 933 -857 1078 -991 l165 -153 515 0 515 0
-948 947 -948 948 79 17 c511 114 765 208 990 367 143 100 274 241 349 376
142 254 179 589 99 895 -33 130 -125 314 -212 426 -196 253 -493 425 -837 484
-113 19 -160 20 -1308 20 l-1192 -1 62 -29 c343 -158 689 -475 911 -832 122
-197 231 -454 293 -693 l38 -150 2 425 c1 234 2 475 3 535 l1 110 440 3 c280
2 464 -1 505 -8 102 -17 184 -48 263 -99 166 -109 267 -294 267 -491 -1 -261
-159 -472 -430 -573 -76 -28 -126 -40 -440 -107 -129 -27 -296 -63 -370 -80
-272 -62 -462 -101 -467 -96 -3 3 -10 49 -14 103 -40 438 -183 814 -444 1161
-287 383 -736 670 -1205 770 -244 53 -226 52 -1442 52 l-1135 0 162 -162z"/>
<path d="M5921 4383 c-56 -137 -180 -346 -295 -493 -105 -136 -311 -332 -438
-419 l-48 -32 0 -164 0 -165 494 0 494 0 -3 582 -4 581 -33 30 c-18 16 -58 53
-89 83 l-55 55 -23 -58z"/>
</g>
</svg>
